<svg width="1024" height="1024" viewBox="0 0 1024 1024" xmlns="http://www.w3.org/2000/svg">
  <!-- Background with brand colors gradient -->
  <defs>
    <linearGradient id="bgGradient" x1="0%" y1="0%" x2="100%" y2="100%">
      <stop offset="0%" style="stop-color:#3498db;stop-opacity:1" />
      <stop offset="100%" style="stop-color:#2c3e50;stop-opacity:1" />
    </linearGradient>
    <linearGradient id="accentGradient" x1="0%" y1="0%" x2="100%" y2="0%">
      <stop offset="0%" style="stop-color:#e74c3c;stop-opacity:1" />
      <stop offset="100%" style="stop-color:#c0392b;stop-opacity:1" />
    </linearGradient>
    <filter id="shadow">
      <feDropShadow dx="0" dy="4" stdDeviation="8" flood-opacity="0.2"/>
    </filter>
  </defs>
  
  <!-- Rounded square background -->
  <rect width="1024" height="1024" rx="220" fill="url(#bgGradient)"/>
  
  <!-- Central design: Combination of book (education) and AI brain -->
  
  <!-- Open book base -->
  <g transform="translate(512, 512)">
    <!-- Book pages -->
    <path d="M -200 -80 Q -200 -120, -160 -120 L 0 -120 L 160 -120 Q 200 -120, 200 -80 L 200 120 Q 200 140, 180 140 L 0 140 L -180 140 Q -200 140, -200 120 Z" 
          fill="#ffffff" opacity="0.95" filter="url(#shadow)"/>
    
    <!-- Book spine -->
    <rect x="-15" y="-120" width="30" height="260" fill="#ffffff" opacity="1"/>
    
    <!-- Left page -->
    <path d="M -180 -100 L -20 -100 L -20 120 L -180 120 Q -190 120, -190 110 L -190 -90 Q -190 -100, -180 -100 Z" 
          fill="#ecf0f1" opacity="0.9"/>
    
    <!-- Right page -->
    <path d="M 20 -100 L 180 -100 Q 190 -100, 190 -90 L 190 110 Q 190 120, 180 120 L 20 120 Z" 
          fill="#ecf0f1" opacity="0.9"/>
    
    <!-- AI Brain symbol on book -->
    <g transform="scale(1.2)">
      <!-- Brain outline -->
      <ellipse cx="0" cy="-20" rx="80" ry="70" fill="none" stroke="#2c3e50" stroke-width="6"/>
      
      <!-- Neural network nodes -->
      <circle cx="-30" cy="-30" r="8" fill="url(#accentGradient)"/>
      <circle cx="30" cy="-30" r="8" fill="url(#accentGradient)"/>
      <circle cx="0" cy="-20" r="10" fill="#3498db"/>
      <circle cx="-25" cy="-5" r="6" fill="#3498db"/>
      <circle cx="25" cy="-5" r="6" fill="#3498db"/>
      <circle cx="0" cy="10" r="7" fill="#3498db"/>
      
      <!-- Connections -->
      <line x1="-30" y1="-30" x2="0" y2="-20" stroke="#3498db" stroke-width="3" opacity="0.6"/>
      <line x1="30" y1="-30" x2="0" y2="-20" stroke="#3498db" stroke-width="3" opacity="0.6"/>
      <line x1="0" y1="-20" x2="-25" y2="-5" stroke="#3498db" stroke-width="2" opacity="0.5"/>
      <line x1="0" y1="-20" x2="25" y2="-5" stroke="#3498db" stroke-width="2" opacity="0.5"/>
      <line x1="-25" y1="-5" x2="0" y2="10" stroke="#3498db" stroke-width="2" opacity="0.5"/>
      <line x1="25" y1="-5" x2="0" y2="10" stroke="#3498db" stroke-width="2" opacity="0.5"/>
    </g>
    
    <!-- IELTS bands indicator (subtle) -->
    <g transform="translate(0, 80)">
      <rect x="-60" y="0" width="15" height="30" fill="#2c3e50" opacity="0.8"/>
      <rect x="-40" y="-10" width="15" height="40" fill="#2c3e50" opacity="0.9"/>
      <rect x="-20" y="-20" width="15" height="50" fill="#3498db" opacity="1"/>
      <rect x="0" y="-25" width="15" height="55" fill="#3498db" opacity="1"/>
      <rect x="20" y="-20" width="15" height="50" fill="#3498db" opacity="0.9"/>
      <rect x="40" y="-10" width="15" height="40" fill="#2c3e50" opacity="0.8"/>
    </g>
  </g>
  
  <!-- Decorative elements -->
  <circle cx="200" cy="200" r="4" fill="#ffffff" opacity="0.6"/>
  <circle cx="824" cy="200" r="4" fill="#ffffff" opacity="0.6"/>
  <circle cx="200" cy="824" r="4" fill="#ffffff" opacity="0.6"/>
  <circle cx="824" cy="824" r="4" fill="#ffffff" opacity="0.6"/>
</svg>